HIERARCHY
ROOT Hips
{
  OFFSET 5.84602e-005 68.8428 3.50346
  CHANNELS 6 Xposition Yposition Zposition Zrotation Xrotation Yrotation
  JOINT Spine
  {
    OFFSET 0 8.597 -4.6522
    CHANNELS 3 Zrotation Xrotation Yrotation
    JOINT Spine1
    {
      OFFSET 0 7.8454 0.4098
      CHANNELS 3 Zrotation Xrotation Yrotation
      JOINT Spine2
      {
        OFFSET 0 9.7078 -2.1609
        CHANNELS 3 Zrotation Xrotation Yrotation
        JOINT Neck
        {
          OFFSET 0 21.8761 -0.4549
          CHANNELS 3 Zrotation Xrotation Yrotation
          JOINT Head
          {
            OFFSET 0 12.3537 3.3602
            CHANNELS 3 Zrotation Xrotation Yrotation
            End Site
            {
              OFFSET 0.0001 18.9506 0.5657
            }
          }
        }
        JOINT LeftShoulder
        {
          OFFSET 2.2086 21.1115 7.2329
          CHANNELS 3 Zrotation Xrotation Yrotation
          JOINT LeftArm
          {
            OFFSET 13.1193 3.0282 -4.8998
            CHANNELS 3 Zrotation Xrotation Yrotation
            JOINT LeftForeArm
            {
              OFFSET 27.4081 -0.0973053 -0.2375
              CHANNELS 3 Zrotation Xrotation Yrotation
              JOINT LeftHand
              {
                OFFSET 22.8641 0.0662994 -0.1369
                CHANNELS 3 Zrotation Xrotation Yrotation
                JOINT LeftHandIndex1
                {
                  OFFSET 8.8614 0.775009 2.4612
                  CHANNELS 3 Zrotation Xrotation Yrotation
                  JOINT LeftHandIndex2
                  {
                    OFFSET 3.3146 -0.808304 0.5841
                    CHANNELS 3 Zrotation Xrotation Yrotation
                    JOINT LeftHandIndex3
                    {
                      OFFSET 2.2628 -0.552002 0.3989
                      CHANNELS 3 Zrotation Xrotation Yrotation
                      End Site
                      {
                        OFFSET 1.6102 -0.4807 0.2612
                      }
                    }
                  }
                }
                JOINT LeftHandMiddle1
                {
                  OFFSET 8.9937 0.895004 0.2143
                  CHANNELS 3 Zrotation Xrotation Yrotation
                  JOINT LeftHandMiddle2
                  {
                    OFFSET 4.0984 0.0113983 -0.0242
                    CHANNELS 3 Zrotation Xrotation Yrotation
                    JOINT LeftHandMiddle3
                    {
                      OFFSET 2.2716 0.00689697 -0.0138001
                      CHANNELS 3 Zrotation Xrotation Yrotation
                      End Site
                      {
                        OFFSET 2.0404 -0.1441 0.0027
                      }
                    }
                  }
                }
                JOINT LeftHandRing1
                {
                  OFFSET 8.5234 0.597198 -2.0164
                  CHANNELS 3 Zrotation Xrotation Yrotation
                  JOINT LeftHandRing2
                  {
                    OFFSET 3.7188 -0.188293 -0.2328
                    CHANNELS 3 Zrotation Xrotation Yrotation
                    JOINT LeftHandRing3
                    {
                      OFFSET 2.1191 -0.106598 -0.1332
                      CHANNELS 3 Zrotation Xrotation Yrotation
                      End Site
                      {
                        OFFSET 1.8737 -0.2304 -0.0886
                      }
                    }
                  }
                }
                JOINT LeftHandPinky1
                {
                  OFFSET 7.9094 -0.601089 -3.4825
                  CHANNELS 3 Zrotation Xrotation Yrotation
                  JOINT LeftHandPinky2
                  {
                    OFFSET 2.2874 -0.477005 -0.6314
                    CHANNELS 3 Zrotation Xrotation Yrotation
                    JOINT LeftHandPinky3
                    {
                      OFFSET 1.6774 -0.349396 -0.4633
                      CHANNELS 3 Zrotation Xrotation Yrotation
                      End Site
                      {
                        OFFSET 1.4888 -0.4091 -0.3416
                      }
                    }
                  }
                }
                JOINT LeftHandThumb1
                {
                  OFFSET 1.833 -1.3875 1.3896
                  CHANNELS 3 Zrotation Xrotation Yrotation
                  JOINT LeftHandThumb2
                  {
                    OFFSET 3.4129 -1.121 2.5732
                    CHANNELS 3 Zrotation Xrotation Yrotation
                    JOINT LeftHandThumb3
                    {
                      OFFSET 2.2474 -0.804199 1.6192
                      CHANNELS 3 Zrotation Xrotation Yrotation
                      End Site
                      {
                        OFFSET 1.6527 -0.5689 1.1317
                      }
                    }
                  }
                }
              }
            }
          }
        }
        JOINT RightShoulder
        {
          OFFSET -2.2086 21.1115 7.2329
          CHANNELS 3 Zrotation Xrotation Yrotation
          JOINT RightArm
          {
            OFFSET -13.1216 3.0287 -4.9007
            CHANNELS 3 Zrotation Xrotation Yrotation
            JOINT RightForeArm
            {
              OFFSET -27.4081 -0.0973053 -0.2375
              CHANNELS 3 Zrotation Xrotation Yrotation
              JOINT RightHand
              {
                OFFSET -22.8641 0.0664063 -0.1369
                CHANNELS 3 Zrotation Xrotation Yrotation
                JOINT RightHandIndex1
                {
                  OFFSET -8.8614 0.774994 2.4612
                  CHANNELS 3 Zrotation Xrotation Yrotation
                  JOINT RightHandIndex2
                  {
                    OFFSET -3.3146 -0.808304 0.5841
                    CHANNELS 3 Zrotation Xrotation Yrotation
                    JOINT RightHandIndex3
                    {
                      OFFSET -2.2628 -0.552002 0.3989
                      CHANNELS 3 Zrotation Xrotation Yrotation
                      End Site
                      {
                        OFFSET -1.6102 -0.4807 0.2612
                      }
                    }
                  }
                }
                JOINT RightHandMiddle1
                {
                  OFFSET -8.9937 0.894989 0.2143
                  CHANNELS 3 Zrotation Xrotation Yrotation
                  JOINT RightHandMiddle2
                  {
                    OFFSET -4.0984 0.0113983 -0.0242
                    CHANNELS 3 Zrotation Xrotation Yrotation
                    JOINT RightHandMiddle3
                    {
                      OFFSET -2.2716 0.00691223 -0.0138001
                      CHANNELS 3 Zrotation Xrotation Yrotation
                      End Site
                      {
                        OFFSET -2.0404 -0.1441 0.0027
                      }
                    }
                  }
                }
                JOINT RightHandRing1
                {
                  OFFSET -8.5234 0.597198 -2.0164
                  CHANNELS 3 Zrotation Xrotation Yrotation
                  JOINT RightHandRing2
                  {
                    OFFSET -3.7188 -0.188309 -0.2328
                    CHANNELS 3 Zrotation Xrotation Yrotation
                    JOINT RightHandRing3
                    {
                      OFFSET -2.1191 -0.106598 -0.1332
                      CHANNELS 3 Zrotation Xrotation Yrotation
                      End Site
                      {
                        OFFSET -1.8737 -0.2304 -0.0886
                      }
                    }
                  }
                }
                JOINT RightHandPinky1
                {
                  OFFSET -7.9094 -0.601105 -3.4825
                  CHANNELS 3 Zrotation Xrotation Yrotation
                  JOINT RightHandPinky2
                  {
                    OFFSET -2.2874 -0.477005 -0.6314
                    CHANNELS 3 Zrotation Xrotation Yrotation
                    JOINT RightHandPinky3
                    {
                      OFFSET -1.6774 -0.349396 -0.4633
                      CHANNELS 3 Zrotation Xrotation Yrotation
                      End Site
                      {
                        OFFSET -1.4888 -0.4091 -0.3416
                      }
                    }
                  }
                }
                JOINT RightHandThumb1
                {
                  OFFSET -1.833 -1.38751 1.3896
                  CHANNELS 3 Zrotation Xrotation Yrotation
                  JOINT RightHandThumb2
                  {
                    OFFSET -3.41299 -1.12099 2.5732
                    CHANNELS 3 Zrotation Xrotation Yrotation
                    JOINT RightHandThumb3
                    {
                      OFFSET -2.24741 -0.804108 1.6192
                      CHANNELS 3 Zrotation Xrotation Yrotation
                      End Site
                      {
                        OFFSET -1.6527 -0.5689 1.1317
                      }
                    }
                  }
                }
              }
            }
          }
        }
      }
    }
  }
  JOINT RightUpLeg
  {
    OFFSET -9.1966 3.8861 -0.7581
    CHANNELS 3 Zrotation Xrotation Yrotation
    JOINT RightLeg
    {
      OFFSET -0.7359 -41.0265 0
      CHANNELS 3 Zrotation Xrotation Yrotation
      JOINT RightFoot
      {
        OFFSET 0 -40.2855 0
        CHANNELS 3 Zrotation Xrotation Yrotation
        JOINT RightToeBase
        {
          OFFSET 0 -5.6122 11.7359
          CHANNELS 3 Zrotation Xrotation Yrotation
          End Site
          {
            OFFSET 0 0 7.8731
          }
        }
      }
    }
  }
  JOINT LeftUpLeg
  {
    OFFSET 9.1965 3.8864 -0.7581
    CHANNELS 3 Zrotation Xrotation Yrotation
    JOINT LeftLeg
    {
      OFFSET 0.7359 -41.0268 0
      CHANNELS 3 Zrotation Xrotation Yrotation
      JOINT LeftFoot
      {
        OFFSET 0 -40.2855 0
        CHANNELS 3 Zrotation Xrotation Yrotation
        JOINT LeftToeBase
        {
          OFFSET 0 -5.6122 11.7359
          CHANNELS 3 Zrotation Xrotation Yrotation
          End Site
          {
            OFFSET 0 0 7.8731
          }
        }
      }
    }
  }
}
MOTION
Frames:	5
Frame Time:	0.0333333
-0.624092 62.1333 7.27396 0 2.17657 -0 -0.636792 1.26976 -0.239484 -1.26874 2.54213 -0.465005 -1.26873 2.54213 -0.465005 14.8837 2.34127 -1.35253 7.30481 -4.92631 9.11407 4.26287 6.17909 -4.32489 -52.8985 -1.09385 -14.317 -18.9809 28.4866 -67.9395 -8.37393 0.0751735 7.12631 -3.10217e-007 2.61732e-007 3.46365e-007 -3.7226e-007 3.14078e-007 4.15638e-007 -4.34303e-007 3.66424e-007 4.84911e-007 -3.10217e-007 2.61732e-007 3.46365e-007 -0.0146211 -8.38542e-005 5.3222e-006 -4.34302e-007 3.66363e-007 4.84958e-007 -3.10217e-007 2.61732e-007 3.46365e-007 -0.0187193 -0.00117413 6.15625e-005 -4.34297e-007 3.66346e-007 4.84975e-007 -3.10217e-007 2.61732e-007 3.46365e-007 -0.0123084 -0.00326514 0.000681129 -4.34286e-007 3.66375e-007 4.84963e-007 -3.10217e-007 2.61732e-007 3.46365e-007 -3.7226e-007 3.14078e-007 4.15638e-007 -4.34303e-007 3.66424e-007 4.84911e-007 -4.56591 5.68914 4.22391 52.9026 -1.14263 14.4478 18.9054 28.2191 67.3871 9.66029 0.325624 -6.7816 1.47339e-006 1.36663e-006 -1.58475e-006 1.22783e-006 1.13886e-006 -1.32062e-006 7.36695e-007 6.83317e-007 -7.92374e-007 1.47339e-006 1.36663e-006 -1.58475e-006 0.0149987 -8.54755e-005 -9.20071e-007 7.36688e-007 6.83214e-007 -7.92464e-007 1.47339e-006 1.36663e-006 -1.58475e-006 0.0190089 -0.00119079 -5.84434e-005 7.36678e-007 6.83187e-007 -7.92495e-007 1.47339e-006 1.36663e-006 -1.58475e-006 0.0123223 -0.00325785 -0.000679981 7.36663e-007 6.83238e-007 -7.92468e-007 1.47339e-006 1.36663e-006 -1.58475e-006 1.22783e-006 1.13886e-006 -1.32062e-006 7.36695e-007 6.83317e-007 -7.92374e-007 -11.3587 -25.0461 -21.9334 -5.78998 53.8725 3.90066 13.259 -25.4512 6.06832 -2.68359e-015 -1.2921e-015 -0 13.4103 -24.6426 23.6793 5.32157 53.641 -3.60067 -14.0412 -24.5296 -8.02267 -4.0297e-007 1.74875e-007 -1.81479e-010 
-0.624091 62.096 7.08367 0 2.85464 -0 -0.635577 1.01054 -0.243799 -1.26714 2.02379 -0.476482 -1.26714 2.02379 -0.476482 15.024 2.67685 -1.40932 7.35055 -4.67976 9.17991 4.17033 6.71054 -4.18573 -52.8986 -1.09385 -14.317 -19.0149 28.5768 -68.1565 -8.40076 0.23586 7.25805 4.35321e-007 -3.6612e-007 -4.84236e-007 -6.21887e-008 5.23029e-008 6.91766e-008 6.21887e-007 -5.23029e-007 -6.91766e-007 4.35321e-007 -3.6612e-007 -4.84236e-007 -0.0145936 -8.32973e-005 3.1664e-007 6.21885e-007 -5.22941e-007 -6.91833e-007 4.35321e-007 -3.6612e-007 -4.84236e-007 -0.0187104 -0.00117789 6.32137e-005 6.21878e-007 -5.22917e-007 -6.91858e-007 4.35321e-007 -3.6612e-007 -4.84236e-007 -0.0122112 -0.00323346 0.000677304 6.21863e-007 -5.22959e-007 -6.9184e-007 4.35321e-007 -3.6612e-007 -4.84236e-007 -6.21887e-008 5.23029e-008 6.91766e-008 6.21887e-007 -5.23029e-007 -6.91766e-007 -4.4808 6.20589 4.08161 52.9026 -1.14263 14.4478 18.9397 28.3071 67.5955 9.71156 0.488393 -6.91152 -1.47689e-006 -1.36563e-006 1.58248e-006 -1.72304e-006 -1.59323e-006 1.84623e-006 -4.92296e-007 -4.55209e-007 5.27494e-007 -1.47689e-006 -1.36563e-006 1.58248e-006 0.0150366 -9.67313e-005 -6.34493e-006 -4.92291e-007 -4.5514e-007 5.27554e-007 -1.47689e-006 -1.36563e-006 1.58248e-006 0.019038 -0.00119526 -5.79632e-005 -4.92285e-007 -4.55122e-007 5.27575e-007 -1.47689e-006 -1.36563e-006 1.58248e-006 0.0122494 -0.00323578 -0.000663792 -4.92275e-007 -4.55157e-007 5.27557e-007 -1.47689e-006 -1.36563e-006 1.58248e-006 -1.72304e-006 -1.59323e-006 1.84623e-006 -4.92296e-007 -4.55209e-007 5.27494e-007 -11.242 -25.9369 -21.6699 -5.78911 53.8677 3.90104 13.2421 -25.4829 5.67007 2.48481e-017 9.93923e-017 6.36111e-015 13.2641 -25.5497 23.3443 5.32081 53.6361 -3.60226 -14.0325 -24.5888 -7.53797 -1.73933e-008 2.71967e-007 -2.22246e-006 
-0.624081 62.0598 6.89296 0 3.53261 -0 -0.634314 0.751472 -0.248079 -1.26553 1.50566 -0.487886 -1.26553 1.50566 -0.487886 15.1645 3.01208 -1.46696 7.39597 -4.43327 9.2455 4.07631 7.24185 -4.04562 -52.8985 -1.09385 -14.317 -19.0486 28.667 -68.3735 -8.42794 0.396489 7.38986 6.2334e-008 -5.2259e-008 -6.90803e-008 -1.87002e-007 1.56777e-007 2.07241e-007 -1.24668e-007 1.04518e-007 1.3816e-007 6.2334e-008 -5.2259e-008 -6.90803e-008 -0.014561 -9.87628e-005 3.83457e-006 9.52383e-007 5.27117e-007 7.90783e-007 6.2334e-008 -5.2259e-008 -6.90803e-008 -0.0187677 -0.00117575 5.5916e-005 -1.24666e-007 1.04495e-007 1.38179e-007 6.2334e-008 -5.2259e-008 -6.90803e-008 -0.0123271 -0.00326759 0.000682739 9.52179e-007 5.27452e-007 7.90677e-007 6.2334e-008 -5.2259e-008 -6.90803e-008 -1.87002e-007 1.56777e-007 2.07241e-007 -1.24668e-007 1.04518e-007 1.3816e-007 -4.39441 6.72251 3.93838 52.9026 -1.14263 14.4478 18.9736 28.3951 67.804 9.76323 0.651016 -7.04157 -9.86926e-007 -9.09731e-007 1.05348e-006 -4.93463e-007 -4.54865e-007 5.26741e-007 -2.46731e-007 -2.27433e-007 2.63371e-007 -9.86926e-007 -9.09731e-007 1.05348e-006 0.0149777 -8.41801e-005 1.19884e-005 -2.46729e-007 -2.27398e-007 2.63401e-007 -9.86926e-007 -9.09731e-007 1.05348e-006 0.0189768 -0.00119438 -6.3598e-005 -2.46726e-007 -2.27389e-007 2.63411e-007 -9.86926e-007 -9.09731e-007 1.05348e-006 0.0122559 -0.0032384 -0.000674963 -2.46721e-007 -2.27406e-007 2.63402e-007 -9.86926e-007 -9.09731e-007 1.05348e-006 -4.93463e-007 -4.54865e-007 5.26741e-007 -2.46731e-007 -2.27433e-007 2.63371e-007 -11.1201 -26.8268 -21.4026 -5.78811 53.8627 3.90141 13.225 -25.5144 5.27174 -3.12967e-009 -5.98414e-009 1.68775e-006 13.111 -26.4554 23.0044 5.31988 53.6311 -3.60384 -14.0233 -24.6478 -7.0531 -4.20457e-007 6.95503e-008 -5.22378e-009 
-0.62406 62.0246 6.70185 0 4.21045 -0 -0.633037 0.492621 -0.252336 -1.26397 0.987963 -0.499241 -1.26397 0.987965 -0.499241 15.3048 3.34609 -1.52517 7.44107 -4.18684 9.31084 3.98096 7.77276 -3.90443 -52.8986 -1.09385 -14.317 -19.0819 28.7574 -68.5908 -8.45551 0.55704 7.52173 -3.79472e-007 -9.86901e-007 -1.42879e-006 8.74709e-007 -7.31e-007 -9.65774e-007 7.54347e-007 6.73615e-007 1.01489e-006 -3.79472e-007 -9.86901e-007 -1.42879e-006 -0.0145864 -8.91231e-005 -6.65839e-006 -3.12395e-007 2.61027e-007 3.44953e-007 -3.79472e-007 -9.86901e-007 -1.42879e-006 -0.0187325 -0.00117782 6.00682e-005 -3.12392e-007 2.61015e-007 3.44965e-007 -3.79472e-007 -9.86901e-007 -1.42879e-006 -0.0122557 -0.0032443 0.000671458 7.55638e-007 6.73835e-007 1.01487e-006 -3.79472e-007 -9.86901e-007 -1.42879e-006 8.74709e-007 -7.31e-007 -9.65774e-007 7.54347e-007 6.73615e-007 1.01489e-006 -4.30656 7.23874 3.79425 52.9026 -1.14263 14.4478 19.0071 28.4832 68.0126 9.81526 0.813535 -7.1718 2.47315e-007 2.27256e-007 -2.62996e-007 2.47315e-007 2.27256e-007 -2.62996e-007 2.47315e-007 2.27256e-007 -2.62996e-007 2.47315e-007 2.27256e-007 -2.62996e-007 0.0149722 -8.39717e-005 1.00993e-005 2.47313e-007 2.27222e-007 -2.63025e-007 2.47315e-007 2.27256e-007 -2.62996e-007 0.0189595 -0.00118946 -5.72985e-005 2.4731e-007 2.27213e-007 -2.63036e-007 2.47315e-007 2.27256e-007 -2.62996e-007 0.0122244 -0.00323904 -0.000679929 2.47305e-007 2.2723e-007 -2.63027e-007 2.47315e-007 2.27256e-007 -2.62996e-007 2.47315e-007 2.27256e-007 -2.62996e-007 2.47315e-007 2.27256e-007 -2.62996e-007 -10.9927 -27.716 -21.131 -5.78723 53.8581 3.90186 13.2077 -25.546 4.87335 -1.2726e-009 -5.65697e-009 1.68783e-006 12.9508 -27.3599 22.6591 5.31896 53.6259 -3.60539 -14.0136 -24.7067 -6.56801 -1.73607e-008 -1.05119e-007 -6.06212e-009 
-0.624025 61.9904 6.51036 0 4.88809 -0 -0.63176 0.233965 -0.256573 -1.26248 0.470815 -0.510559 -1.26248 0.470813 -0.51056 15.4461 3.6804 -1.58428 7.48586 -3.94049 9.37592 3.88433 8.3033 -3.76212 -52.8986 -1.09385 -14.317 -19.1149 28.8478 -68.8081 -8.48343 0.717523 7.6537 4.09569e-006 2.10255e-007 4.35238e-006 -2.36096e-006 1.55718e-007 -1.83175e-006 3.75126e-006 4.97184e-007 4.73126e-006 4.09569e-006 2.10255e-007 4.35238e-006 -0.0146115 -9.55055e-005 2.53255e-006 2.69223e-006 9.42175e-008 4.04385e-006 4.09569e-006 2.10255e-007 4.35238e-006 -0.0187996 -0.0011766 5.52154e-005 3.75185e-006 4.96441e-007 4.7313e-006 4.09569e-006 2.10255e-007 4.35238e-006 -0.0122844 -0.00324675 0.000677298 3.75175e-006 4.9675e-007 4.73119e-006 4.09569e-006 2.10255e-007 4.35238e-006 -2.36096e-006 1.55718e-007 -1.83175e-006 3.75126e-006 4.97184e-007 4.73126e-006 -4.21715 7.75463 3.64925 52.9026 -1.14263 14.4478 19.0404 28.5714 68.2213 9.86765 0.975919 -7.30219 -2.47898e-007 -2.27076e-007 2.62622e-007 -9.91593e-007 -9.08303e-007 1.05049e-006 -2.47898e-007 -2.27076e-007 2.62622e-007 -2.47898e-007 -2.27076e-007 2.62622e-007 0.014947 -9.11993e-005 3.86389e-006 -2.47896e-007 -2.27041e-007 2.62652e-007 -2.47898e-007 -2.27076e-007 2.62622e-007 0.0189758 -0.00119913 -6.0199e-005 -2.47893e-007 -2.27033e-007 2.62662e-007 -2.47898e-007 -2.27076e-007 2.62622e-007 0.0122768 -0.00324786 -0.000680291 -2.47888e-007 -2.27049e-007 2.62653e-007 -2.47898e-007 -2.27076e-007 2.62622e-007 -9.91593e-007 -9.08303e-007 1.05049e-006 -2.47898e-007 -2.27076e-007 2.62622e-007 -10.8596 -28.6039 -20.8552 -5.78618 53.853 3.90223 13.1902 -25.5772 4.47487 6.55368e-016 -6.83322e-017 6.36111e-015 12.7834 -28.2633 22.3083 5.31816 53.6211 -3.60701 -14.0034 -24.7655 -6.0828 -7.80714e-010 -2.3041e-008 -5.06417e-006 
